# xmcd
#
# Track frame offsets:
#	150
#	15597
#	32962
#	48195
#	62647
#	78235
#	90875
#	106875
#	121240
#	138422
#
# Disc length: 2074 seconds
# Revision: 3
# Processed by: cddbd v1.5.2PL0 Copyright (c) Steve Scherf et al.
# Submitted via: dBpowerAMP V12.0
#
DISCID=7008180a
DTITLE=Lee Greenwood - Holdin' A Good Hand
DYEAR=1991
DGENRE=Country
TTITLE0=We've Got It Made
TTITLE1=I Still Look Gor You
TTITLE2=Enough Already
TTITLE3=Love Lying Next To Me
TTITLE4=Whose Fool I Wanna Be
TTITLE5=Holdin' A Good Hand
TTITLE6=Just Like Me
TTITLE7=Giving Up The Ghost (That's Haunting Me)
TTITLE8=The Moment You Were Mine
TTITLE9=Another Year Of Love
EXTD=
EXTT0=
EXTT1=
EXTT2=
EXTT3=
EXTT4=
EXTT5=
EXTT6=
EXTT7=
EXTT8=
EXTT9=
PLAYORDER=
